<svg width="40" height="41" viewBox="0 0 40 41" fill="none" xmlns="http://www.w3.org/2000/svg">
<g id="Bell">
<path id="shape" d="M15 29.0417V30.75C15 31.423 15.1293 32.0895 15.3806 32.7113C15.6319 33.333 16.0002 33.898 16.4645 34.3739C16.9288 34.8498 17.48 35.2273 18.0866 35.4849C18.6932 35.7424 19.3434 35.875 20 35.875C20.6566 35.875 21.3068 35.7424 21.9134 35.4849C22.5201 35.2273 23.0713 34.8498 23.5356 34.3739C23.9998 33.898 24.3681 33.333 24.6194 32.7113C24.8707 32.0895 25 31.423 25 30.75V29.0417M15 29.0417H6.66669C6.66669 29.0417 10 22.2083 10 15.375C10 9.79216 14.5534 5.125 20 5.125C25.4467 5.125 30 9.79217 30 15.375C30 20.5 33.3334 29.0417 33.3334 29.0417H25M15 29.0417H25" stroke="white" stroke-width="2" stroke-linecap="round" stroke-linejoin="round"/>
</g>
</svg>
