<svg width="16" height="14" viewBox="0 0 16 14" fill="none" xmlns="http://www.w3.org/2000/svg">
<path id="Vector" d="M3.86557 11.2256C4.2686 10.9319 4.79034 10.857 5.25897 11.0257C6.08689 11.3256 7.01478 11.4974 8.00203 11.4974C11.8979 11.4974 14.5004 8.98237 14.5004 6.49855C14.5004 4.01473 11.8979 1.49967 8.00203 1.49967C4.10614 1.49967 1.50367 4.01473 1.50367 6.49855C1.50367 7.49833 1.89107 8.46061 2.61901 9.28543C2.8877 9.58848 3.01891 9.9884 2.98767 10.3946C2.94393 10.9601 2.80959 11.4787 2.63463 11.938C3.16575 11.6911 3.60626 11.4162 3.86557 11.2287V11.2256ZM0.666383 12.4941C0.722619 12.4097 0.77573 12.3254 0.825718 12.241C1.13814 11.7224 1.43494 11.0413 1.4943 10.2758C0.557036 9.21044 0.0040507 7.90761 0.0040507 6.49855C0.0040507 2.90873 3.58439 0 8.00203 0C12.4197 0 16 2.90873 16 6.49855C16 10.0884 12.4197 12.9971 8.00203 12.9971C6.84294 12.9971 5.74322 12.7971 4.74972 12.4378C4.37794 12.7097 3.77185 13.0815 3.05328 13.3939C2.58152 13.6001 2.04416 13.7875 1.48805 13.8969C1.46306 13.9031 1.43806 13.9063 1.41307 13.9125C1.2756 13.9375 1.14126 13.9594 1.00067 13.9719C0.994425 13.9719 0.985052 13.975 0.978804 13.975C0.819469 13.9906 0.660135 14 0.5008 14C0.297726 14 0.116522 13.8782 0.038417 13.6907C-0.0396882 13.5032 0.00405069 13.2908 0.14464 13.1471C0.272733 13.0158 0.388328 12.8753 0.497676 12.7253C0.550787 12.6534 0.600775 12.5816 0.647638 12.5097L0.65701 12.4941H0.666383Z" fill="black"/>
</svg>
