<svg width="25" height="25" viewBox="0 0 25 25" fill="none" xmlns="http://www.w3.org/2000/svg">
<g id="home (1) (1) 1" clip-path="url(#clip0_175_433)">
<path id="Vector" d="M15.7226 0.976584C16.0521 1.24289 16.348 1.53597 16.6452 1.83751C16.7731 1.96435 16.7731 1.96435 16.9036 2.09374C17.1345 2.32329 17.3642 2.55385 17.5935 2.78503C17.8349 3.02812 18.0776 3.26995 18.3202 3.51198C18.7268 3.91812 19.1323 4.32524 19.5373 4.73296C20.0043 5.20304 20.4727 5.67152 20.9421 6.13918C21.3956 6.59118 21.8481 7.04428 22.3 7.4979C22.4915 7.69004 22.6834 7.8818 22.8755 8.07326C23.144 8.34086 23.4109 8.61006 23.6776 8.87945C23.7567 8.9579 23.8358 9.03635 23.9173 9.11719C24.5378 9.74828 25.0099 10.3989 25.0144 11.3171C25.0154 11.4647 25.0154 11.4647 25.0165 11.6154C25.0167 11.7233 25.017 11.8312 25.0173 11.9423C25.0179 12.0561 25.0186 12.1698 25.0192 12.287C25.0211 12.6643 25.0223 13.0416 25.0233 13.419C25.0237 13.5479 25.0241 13.6767 25.0245 13.8095C25.0263 14.4216 25.0277 15.0336 25.0285 15.6457C25.0295 16.3505 25.032 17.0553 25.036 17.7601C25.039 18.3058 25.0404 18.8516 25.0407 19.3973C25.0409 19.7228 25.042 20.0482 25.0443 20.3736C25.0467 20.7376 25.0466 21.1014 25.0459 21.4653C25.0478 21.6251 25.0478 21.6251 25.0497 21.7881C25.0436 22.6891 24.8286 23.4871 24.2035 24.16C23.4628 24.8034 22.8059 25.0146 21.8447 25.0144C21.7621 25.0148 21.6795 25.0151 21.5944 25.0155C21.3172 25.0166 21.04 25.0169 20.7628 25.0173C20.5642 25.0179 20.3656 25.0186 20.167 25.0193C19.5143 25.0213 18.8617 25.0223 18.2091 25.0233C17.9843 25.0237 17.7595 25.0241 17.5348 25.0245C16.4787 25.0264 15.4226 25.0277 14.3665 25.0286C13.148 25.0295 11.9295 25.0321 10.7109 25.036C9.76879 25.039 8.82663 25.0404 7.88447 25.0407C7.32192 25.041 6.75939 25.0419 6.19684 25.0443C5.66733 25.0466 5.13785 25.047 4.60833 25.046C4.41441 25.0459 4.22049 25.0466 4.02658 25.0479C2.82255 25.0558 1.76489 25.06 0.83312 24.1898C0.106409 23.3815 -0.0292564 22.5763 -0.0283818 21.519C-0.0290378 21.4051 -0.0296938 21.2911 -0.0303696 21.1738C-0.0322233 20.7975 -0.0326064 20.4213 -0.0328164 20.0451C-0.0332854 19.8494 -0.033755 19.6536 -0.0342737 19.4579C-0.0358617 18.8425 -0.036341 18.2272 -0.036202 17.6118C-0.0360847 16.9788 -0.0381439 16.3457 -0.0412296 15.7127C-0.0437906 15.1677 -0.0448306 14.6227 -0.044706 14.0777C-0.0446564 13.7529 -0.0453849 13.4281 -0.047281 13.1032C-0.0492001 12.7405 -0.0486306 12.3778 -0.0474553 12.0151C-0.0485529 11.9086 -0.0496504 11.8022 -0.0507812 11.6926C-0.0418246 10.6016 0.325741 9.95087 1.07421 9.17971C1.13633 9.11488 1.19844 9.05005 1.26244 8.98326C1.46673 8.77253 1.67322 8.56417 1.88037 8.35626C1.95796 8.27803 2.03555 8.1998 2.11549 8.1192C2.36995 7.86283 2.62478 7.60685 2.8797 7.35094C2.96728 7.26297 3.05486 7.17499 3.14509 7.08435C3.56064 6.66698 3.97639 6.24981 4.39244 5.83294C4.86997 5.35445 5.34668 4.87517 5.82272 4.39519C6.23749 3.9771 6.65335 3.5601 7.06959 3.14347C7.24547 2.96711 7.42102 2.79043 7.59622 2.61341C7.84176 2.36548 8.08852 2.11882 8.3356 1.87242C8.40681 1.79996 8.47802 1.7275 8.55138 1.65285C10.5744 -0.350161 13.3527 -0.507028 15.7226 0.976584ZM8.18137 5.18458C8.01005 5.35584 7.83871 5.52708 7.66735 5.69831C7.31024 6.05528 6.9533 6.41243 6.59648 6.7697C6.13839 7.22836 5.67985 7.68657 5.22118 8.14466C4.86823 8.49726 4.51551 8.85008 4.16287 9.20298C3.99376 9.37216 3.82457 9.54126 3.65532 9.71029C3.41993 9.94543 3.18486 10.1809 2.94987 10.4164C2.87962 10.4865 2.80936 10.5565 2.73698 10.6287C2.67334 10.6926 2.60971 10.7565 2.54414 10.8224C2.46084 10.9057 2.46084 10.9057 2.37586 10.9908C2.14392 11.2447 2.13594 11.4262 2.13471 11.7599C2.13415 11.8506 2.1336 11.9414 2.13302 12.0349C2.13291 12.1348 2.1328 12.2347 2.13269 12.3376C2.13221 12.4426 2.13172 12.5476 2.13122 12.6557C2.12979 13.0042 2.12913 13.3528 2.12859 13.7013C2.12803 13.9429 2.12747 14.1844 2.1269 14.426C2.12588 14.9331 2.12531 15.4402 2.12497 15.9473C2.12451 16.5976 2.12209 17.2478 2.11931 17.898C2.11749 18.3972 2.11698 18.8964 2.11683 19.3957C2.11653 19.6354 2.11575 19.8751 2.11447 20.1148C2.1128 20.4501 2.11298 20.7853 2.11362 21.1206C2.11272 21.2199 2.11182 21.3192 2.11089 21.4215C2.10963 22.0905 2.10963 22.0905 2.4414 22.6563C2.72142 22.8475 2.94491 22.8756 3.27977 22.8738C3.36772 22.8737 3.45568 22.8737 3.54629 22.8737C3.68746 22.8722 3.68746 22.8722 3.83147 22.8707C3.92846 22.8704 4.02545 22.8701 4.12538 22.8698C4.43483 22.8687 4.74426 22.8663 5.0537 22.8638C5.26364 22.8628 5.47357 22.8619 5.68351 22.8611C6.19787 22.859 6.71221 22.8557 7.22655 22.8516C7.22691 22.7976 7.22726 22.7435 7.22763 22.6879C7.23177 22.1173 7.23857 21.5469 7.24682 20.9764C7.24955 20.7645 7.25163 20.5526 7.25302 20.3406C7.26745 18.2561 7.44919 16.5592 8.9302 14.9735C10.1123 13.8962 11.5436 13.6011 13.09 13.659C14.3995 13.7472 15.6363 14.4764 16.5039 15.4297C17.4198 16.6006 17.6823 17.8711 17.7067 19.323C17.7087 19.424 17.7107 19.5251 17.7128 19.6292C17.7192 19.9506 17.725 20.2719 17.7307 20.5933C17.7349 20.8117 17.7392 21.0302 17.7435 21.2486C17.7539 21.783 17.7639 22.3173 17.7734 22.8516C18.3903 22.859 19.0072 22.8641 19.6242 22.8677C19.834 22.8692 20.0438 22.8711 20.2536 22.8737C20.5554 22.8772 20.8571 22.8789 21.159 22.8802C21.2526 22.8817 21.3462 22.8832 21.4426 22.8848C22.0999 22.887 22.0999 22.887 22.6562 22.5586C22.8322 22.2692 22.8766 22.0513 22.8796 21.7148C22.8815 21.5788 22.8815 21.5788 22.8834 21.4402C22.884 21.2921 22.884 21.2921 22.8846 21.141C22.8857 21.0364 22.8868 20.9319 22.888 20.8242C22.8913 20.4782 22.8931 20.1322 22.8947 19.7861C22.8953 19.6678 22.896 19.5496 22.8967 19.4277C22.9002 18.8019 22.9025 18.176 22.9038 17.5502C22.9055 16.9041 22.9112 16.2581 22.9178 15.6121C22.9222 15.115 22.9235 14.6178 22.924 14.1207C22.9248 13.8825 22.9267 13.6444 22.9298 13.4063C22.9338 13.0727 22.9336 12.7393 22.9323 12.4057C22.9344 12.3078 22.9366 12.2098 22.9388 12.1089C22.9305 11.4887 22.8049 11.1712 22.3653 10.7322C22.2676 10.6405 22.2676 10.6405 22.168 10.5469C22.0436 10.4181 21.9195 10.289 21.7957 10.1596C21.6603 10.0225 21.5246 9.88552 21.3887 9.74879C21.314 9.67326 21.2392 9.59773 21.1622 9.51991C20.9173 9.27258 20.672 9.02563 20.4265 8.77878C20.3422 8.69392 20.2579 8.60905 20.171 8.52162C19.725 8.07307 19.2787 7.62488 18.8322 7.17692C18.4639 6.8074 18.0963 6.43711 17.7294 6.06618C17.2846 5.61652 16.8386 5.16808 16.3917 4.72047C16.2222 4.5504 16.0532 4.37991 15.8847 4.20899C15.6485 3.96969 15.4108 3.73199 15.1726 3.49459C15.1042 3.42452 15.0357 3.35446 14.9652 3.28226C14.2926 2.61795 13.505 2.14806 12.5427 2.11794C10.6643 2.15104 9.40492 3.95937 8.18137 5.18458ZM10.2539 16.6992C9.47998 17.6691 9.35814 18.5935 9.36545 19.7998C9.36555 19.8777 9.36565 19.9557 9.36575 20.036C9.36626 20.3235 9.36762 20.611 9.36889 20.8985C9.3709 21.543 9.37291 22.1875 9.37499 22.8516C11.4375 22.8516 13.5 22.8516 15.625 22.8516C15.629 22.2131 15.633 21.5746 15.6372 20.9168C15.639 20.7175 15.6408 20.5183 15.6426 20.313C15.6543 18.3169 15.6543 18.3169 14.6843 16.6195C13.3862 15.415 11.498 15.4406 10.2539 16.6992Z" fill="white"/>
</g>
<defs>
<clipPath id="clip0_175_433">
<rect width="25" height="25" fill="white"/>
</clipPath>
</defs>
</svg>
