<svg width="16" height="14" viewBox="0 0 16 14" fill="none" xmlns="http://www.w3.org/2000/svg">
<path id="Vector" d="M10.1187 0.0868909C8.925 -0.253596 7.67812 0.436749 7.3375 1.63002L7.15938 2.25476C7.04375 2.66085 6.83438 3.0357 6.55 3.34807L4.94688 5.10985C4.66875 5.41598 4.69062 5.89079 4.99687 6.1688C5.30312 6.44681 5.77813 6.42495 6.05625 6.11882L7.65938 4.35703C8.1 3.87286 8.42188 3.29497 8.6 2.66709L8.77812 2.04235C8.89062 1.64563 9.30625 1.41448 9.70625 1.52693C10.1062 1.63939 10.3344 2.05484 10.2219 2.45468L10.0437 3.07943C9.86562 3.70105 9.58437 4.28831 9.2125 4.8131C9.05 5.04113 9.03125 5.34101 9.15938 5.59091C9.2875 5.84081 9.54375 5.99699 9.825 5.99699H14C14.275 5.99699 14.5 6.2219 14.5 6.49679C14.5 6.70921 14.3656 6.89351 14.175 6.96535C13.9438 7.05282 13.7688 7.24649 13.7094 7.48702C13.65 7.72754 13.7125 7.98056 13.875 8.16487C13.9531 8.25233 14 8.36791 14 8.49598C14 8.73963 13.825 8.94268 13.5938 8.98641C13.3375 9.03639 13.1219 9.21444 13.0312 9.46121C12.9406 9.70799 12.9812 9.98288 13.1438 10.189C13.2094 10.2734 13.25 10.3796 13.25 10.4983C13.25 10.7076 13.1187 10.8919 12.9312 10.9637C12.5719 11.1043 12.3781 11.4916 12.4812 11.8634C12.4937 11.904 12.5 11.9508 12.5 11.9977C12.5 12.2726 12.275 12.4975 12 12.4975H8.95312C8.55937 12.4975 8.17188 12.3819 7.84375 12.1632L5.91563 10.8794C5.57188 10.6482 5.10625 10.7419 4.875 11.0887C4.64375 11.4354 4.7375 11.8977 5.08437 12.1289L7.0125 13.4127C7.5875 13.797 8.2625 14 8.95312 14H12C13.0844 14 13.9656 13.1378 14 12.0633C14.4563 11.6978 14.75 11.1355 14.75 10.5014C14.75 10.3609 14.7344 10.2265 14.7094 10.0953C15.1906 9.72986 15.5 9.15197 15.5 8.50223C15.5 8.29919 15.4688 8.10239 15.4125 7.91809C15.775 7.54949 16 7.04969 16 6.49679C16 5.39411 15.1062 4.4976 14 4.4976H11.1156C11.2625 4.17273 11.3875 3.83537 11.4844 3.49176L11.6625 2.86701C12.0031 1.67375 11.3125 0.427378 10.1187 0.0868909ZM1 4.9974C0.446875 4.9974 0 5.44409 0 5.99699V12.9942C0 13.5471 0.446875 13.9938 1 13.9938H3C3.55312 13.9938 4 13.5471 4 12.9942V5.99699C4 5.44409 3.55312 4.9974 3 4.9974H1Z" fill="black"/>
</svg>
