<svg width="19" height="25" viewBox="0 0 19 25" fill="none" xmlns="http://www.w3.org/2000/svg">
<g id="Group 89">
<path id="Vector" d="M9.375 12.5C10.6111 12.5 11.8195 12.1334 12.8473 11.4467C13.8751 10.7599 14.6762 9.78381 15.1492 8.64177C15.6223 7.49974 15.7461 6.24307 15.5049 5.03069C15.2638 3.81831 14.6685 2.70466 13.7944 1.83059C12.9203 0.956507 11.8067 0.361252 10.5943 0.120095C9.38193 -0.121063 8.12527 0.00270804 6.98323 0.475756C5.84119 0.948803 4.86507 1.74988 4.17831 2.77769C3.49156 3.8055 3.125 5.01387 3.125 6.25C3.12665 7.9071 3.78567 9.49585 4.95741 10.6676C6.12915 11.8393 7.7179 12.4983 9.375 12.5ZM9.375 2.08334C10.1991 2.08334 11.0047 2.32771 11.6899 2.78555C12.3751 3.24339 12.9091 3.89413 13.2245 4.65549C13.5399 5.41685 13.6224 6.25462 13.4616 7.06288C13.3008 7.87113 12.904 8.61356 12.3213 9.19628C11.7386 9.779 10.9961 10.1758 10.1879 10.3366C9.37962 10.4974 8.54184 10.4149 7.78049 10.0995C7.01913 9.78414 6.36838 9.25008 5.91054 8.56488C5.4527 7.87967 5.20833 7.07409 5.20833 6.25C5.20833 5.14493 5.64732 4.08513 6.42872 3.30372C7.21012 2.52232 8.26993 2.08334 9.375 2.08334Z" fill="white"/>
<path id="Vector_2" d="M9.375 14.5833C6.88944 14.586 4.50647 15.5746 2.74892 17.3322C0.991363 19.0897 0.00275714 21.4727 0 23.9583C0 24.2345 0.109747 24.4995 0.305097 24.6948C0.500447 24.8902 0.765399 24.9999 1.04167 24.9999C1.31793 24.9999 1.58289 24.8902 1.77824 24.6948C1.97359 24.4995 2.08333 24.2345 2.08333 23.9583C2.08333 22.0244 2.85156 20.1697 4.21901 18.8023C5.58647 17.4348 7.44113 16.6666 9.375 16.6666C11.3089 16.6666 13.1635 17.4348 14.531 18.8023C15.8984 20.1697 16.6667 22.0244 16.6667 23.9583C16.6667 24.2345 16.7764 24.4995 16.9718 24.6948C17.1671 24.8902 17.4321 24.9999 17.7083 24.9999C17.9846 24.9999 18.2496 24.8902 18.4449 24.6948C18.6403 24.4995 18.75 24.2345 18.75 23.9583C18.7472 21.4727 17.7586 19.0897 16.0011 17.3322C14.2435 15.5746 11.8606 14.586 9.375 14.5833Z" fill="white"/>
</g>
</svg>
