<svg width="23" height="25" viewBox="0 0 23 25" fill="none" xmlns="http://www.w3.org/2000/svg">
<path id="Vector" d="M19.9345 25C19.5492 24.9989 19.1678 24.9215 18.8126 24.7722C18.4573 24.6229 18.1351 24.4047 17.8647 24.1302L11.4585 17.7615L5.05221 24.1344C4.64078 24.5518 4.11314 24.8356 3.53806 24.9487C2.96299 25.0619 2.36716 24.9992 1.82825 24.7688C1.284 24.5498 0.818405 24.1719 0.492273 23.6843C0.16614 23.1967 -0.00537422 22.622 0.000128371 22.0354V5.20833C0.000128371 3.827 0.548862 2.50224 1.52561 1.52549C2.50237 0.548734 3.82713 0 5.20846 0L17.7085 0C18.3924 0 19.0697 0.134718 19.7016 0.396461C20.3335 0.658204 20.9077 1.04185 21.3913 1.52549C21.875 2.00912 22.2586 2.58329 22.5203 3.21519C22.7821 3.8471 22.9168 4.52437 22.9168 5.20833V22.0354C22.9226 22.6215 22.7517 23.1958 22.4264 23.6834C22.101 24.171 21.6363 24.5492 21.0928 24.7688C20.726 24.9222 20.3322 25.0008 19.9345 25ZM5.20846 2.08333C4.37966 2.08333 3.5848 2.41257 2.99875 2.99863C2.4127 3.58468 2.08346 4.37953 2.08346 5.20833V22.0354C2.08309 22.209 2.13416 22.3788 2.23023 22.5234C2.32631 22.6679 2.46307 22.7808 2.62324 22.8476C2.78342 22.9145 2.95982 22.9324 3.13017 22.8991C3.30052 22.8658 3.45717 22.7827 3.58034 22.6604L10.7293 15.5552C10.9245 15.3612 11.1885 15.2523 11.4637 15.2523C11.7389 15.2523 12.0029 15.3612 12.198 15.5552L19.3387 22.6583C19.4618 22.7806 19.6185 22.8637 19.7888 22.897C19.9592 22.9304 20.1356 22.9124 20.2958 22.8456C20.4559 22.7787 20.5927 22.6658 20.6888 22.5213C20.7848 22.3767 20.8359 22.2069 20.8355 22.0333V5.20833C20.8355 4.37953 20.5063 3.58468 19.9203 2.99863C19.3342 2.41257 18.5394 2.08333 17.7105 2.08333H5.20846Z" fill="white"/>
</svg>
